<svg width="20" height="17" viewBox="0 0 20 17" fill="none" xmlns="http://www.w3.org/2000/svg">
<path d="M10 3.50005V15.1667V3.50005ZM4.582 1.23756C7.5898 1.76839 9.3817 2.87672 10 3.51338C10.6183 2.87672 12.4102 1.76839 15.418 1.23839C16.9408 0.969223 17.7022 0.835057 18.352 1.35005C19 1.86422 19 2.70005 19 4.37171V10.3792C19 11.9075 19 12.6717 18.5833 13.1492C18.1675 13.6258 17.2513 13.7875 15.4171 14.1108C13.7836 14.3992 12.5083 14.8575 11.5849 15.3192C10.6759 15.7733 10.2223 16 10 16C9.7777 16 9.3232 15.7733 8.416 15.3192C7.4917 14.8583 6.2164 14.3992 4.582 14.1108C2.7496 13.7875 1.8325 13.6258 1.4167 13.1492C1 12.6717 1 11.9075 1 10.3792V4.37171C1 2.70005 1 1.86422 1.648 1.35005C2.2978 0.835057 3.0592 0.969223 4.582 1.23756Z" fill="#D2D2D2"/>
<path d="M10 3.50005V15.1667M4.582 1.23756C7.5898 1.76839 9.3817 2.87672 10 3.51338C10.6183 2.87672 12.4102 1.76839 15.418 1.23839C16.9408 0.969223 17.7022 0.835057 18.352 1.35005C19 1.86422 19 2.70005 19 4.37171V10.3792C19 11.9075 19 12.6717 18.5833 13.1492C18.1675 13.6258 17.2513 13.7875 15.4171 14.1108C13.7836 14.3992 12.5083 14.8575 11.5849 15.3192C10.6759 15.7733 10.2223 16 10 16C9.7777 16 9.3232 15.7733 8.416 15.3192C7.4917 14.8583 6.2164 14.3992 4.582 14.1108C2.7496 13.7875 1.8325 13.6258 1.4167 13.1492C1 12.6717 1 11.9075 1 10.3792V4.37171C1 2.70005 1 1.86422 1.648 1.35005C2.2978 0.835057 3.0592 0.969223 4.582 1.23756Z" stroke="white" stroke-linecap="round" stroke-linejoin="round"/>
</svg>
